<svg width="135" height="36" viewBox="0 0 135 36" fill="none" xmlns="http://www.w3.org/2000/svg">
<path d="M25.8338 18.24C27.2471 18.6933 28.2738 19.5867 28.9138 20.92C29.5804 22.2533 29.9138 24.08 29.9138 26.4C29.9138 27.84 29.6604 29.1067 29.1538 30.2C28.6471 31.2667 27.9271 32.1733 26.9937 32.92C26.0871 33.6667 24.9804 34.2533 23.6737 34.68C22.3671 35.1333 20.9138 35.4533 19.3138 35.64C17.7404 35.8 16.0604 35.88 14.2738 35.88C13.0738 35.88 11.8871 35.84 10.7137 35.76C9.54042 35.7067 8.43375 35.6267 7.39375 35.52C6.64708 35.44 5.90042 35.2267 5.15375 34.88C4.43375 34.5333 3.78042 34.0667 3.19375 33.48C2.60708 32.8933 2.11375 32.1867 1.71375 31.36C1.34042 30.5333 1.11375 29.6 1.03375 28.56C0.820416 25.0933 0.727083 21.7333 0.753749 18.48C0.807083 15.2267 0.91375 11.84 1.07375 8.32C1.12708 7.25333 1.34042 6.30667 1.71375 5.48C2.11375 4.65333 2.60708 3.94667 3.19375 3.36C3.78042 2.77333 4.43375 2.32 5.15375 2C5.90042 1.65333 6.64708 1.44 7.39375 1.36C8.40708 1.25333 9.48708 1.17333 10.6338 1.12C11.8071 1.04 12.9938 0.999999 14.1937 0.999999C16.0338 0.946666 17.7404 1.02667 19.3138 1.24C20.9138 1.4 22.3404 1.66667 23.5938 2.04C24.8471 2.38666 25.9004 2.90666 26.7538 3.6C27.6071 4.29333 28.2471 5.2 28.6738 6.32C29.1271 7.41333 29.3538 8.77333 29.3538 10.4C29.3538 11.3333 29.2338 12.2533 28.9938 13.16C28.7538 14.04 28.3404 14.8267 27.7538 15.52C27.1938 16.1867 26.4204 16.7333 25.4338 17.16C24.4738 17.56 23.2737 17.76 21.8337 17.76C21.6737 17.76 21.5538 17.8267 21.4738 17.96C21.3938 18.0667 21.3538 18.2 21.3538 18.36C21.3538 18.52 21.3938 18.6667 21.4738 18.8C21.5538 18.9067 21.6737 18.96 21.8337 18.96C22.3938 18.96 23.0204 18.92 23.7138 18.84C24.4338 18.76 25.1404 18.56 25.8338 18.24ZM11.5538 12.4C13.1804 13.3067 14.9404 13.6533 16.8338 13.44C17.0738 13.4133 17.2471 13.32 17.3537 13.16C17.4604 13 17.5138 12.8267 17.5138 12.64C17.5138 12.4533 17.4604 12.2933 17.3537 12.16C17.2737 12.0267 17.1538 11.96 16.9938 11.96C15.9804 12.0133 15.0871 11.9733 14.3137 11.84C13.5404 11.68 12.7271 11.4133 11.8737 11.04C11.7137 10.96 11.5671 10.9733 11.4337 11.08C11.3004 11.16 11.2071 11.28 11.1537 11.44C11.1004 11.6 11.1004 11.7733 11.1537 11.96C11.2071 12.1467 11.3404 12.2933 11.5538 12.4ZM11.5538 24.16C13.1804 25.0667 14.9404 25.4133 16.8338 25.2C17.0738 25.1733 17.2471 25.08 17.3537 24.92C17.4604 24.76 17.5138 24.5867 17.5138 24.4C17.5138 24.2133 17.4604 24.0533 17.3537 23.92C17.2737 23.7867 17.1538 23.72 16.9938 23.72C15.9804 23.7733 15.0871 23.72 14.3137 23.56C13.5404 23.4 12.7271 23.1333 11.8737 22.76C11.7137 22.68 11.5671 22.6933 11.4337 22.8C11.3004 22.88 11.2071 23 11.1537 23.16C11.1004 23.32 11.1004 23.5067 11.1537 23.72C11.2071 23.9067 11.3404 24.0533 11.5538 24.16ZM32.8306 30.24C32.4306 26.4267 32.2306 22.5067 32.2306 18.48C32.2306 14.4533 32.4306 10.5333 32.8306 6.72C32.9106 5.97333 33.0706 5.28 33.3106 4.64C33.5506 4 33.884 3.44 34.3106 2.96C34.764 2.48 35.2973 2.10667 35.9106 1.84C36.5506 1.54667 37.2973 1.4 38.1506 1.4C38.9773 1.4 39.6973 1.54667 40.3106 1.84C40.9506 2.10667 41.484 2.48 41.9106 2.96C42.364 3.44 42.7106 4 42.9506 4.64C43.1906 5.28 43.3506 5.97333 43.4306 6.72C43.8306 10.5333 44.0306 14.4533 44.0306 18.48C44.0306 22.5067 43.8306 26.4267 43.4306 30.24C43.3506 30.9867 43.1906 31.68 42.9506 32.32C42.7106 32.9867 42.364 33.56 41.9106 34.04C41.484 34.52 40.9506 34.8933 40.3106 35.16C39.6973 35.4533 38.9773 35.6 38.1506 35.6C37.2973 35.6 36.5506 35.4533 35.9106 35.16C35.2973 34.8933 34.764 34.52 34.3106 34.04C33.884 33.56 33.5506 32.9867 33.3106 32.32C33.0706 31.68 32.9106 30.9867 32.8306 30.24ZM65.2344 22.12C65.7677 22.12 66.2077 22.1333 66.5544 22.16C66.9277 22.1867 67.2744 22.2133 67.5944 22.24C67.941 22.2667 68.2877 22.3067 68.6344 22.36C69.0077 22.3867 69.4744 22.4133 70.0344 22.44C70.5944 22.4667 71.141 22.6533 71.6744 23C72.2077 23.3467 72.6744 23.8133 73.0744 24.4C73.4744 24.9867 73.7944 25.68 74.0344 26.48C74.2744 27.2533 74.3944 28.0933 74.3944 29C74.3944 29.9067 74.2744 30.76 74.0344 31.56C73.7944 32.36 73.461 33.0533 73.0344 33.64C72.6344 34.2533 72.1677 34.7333 71.6344 35.08C71.101 35.4267 70.5544 35.6 69.9944 35.6H50.1144C48.9677 35.6 47.981 35.1067 47.1544 34.12C46.3544 33.16 45.9544 31.76 45.9544 29.92C45.9544 29.12 46.0744 28.3733 46.3144 27.68C46.5544 26.9867 46.861 26.3333 47.2344 25.72C47.6077 25.1067 48.021 24.5467 48.4744 24.04C48.9277 23.5067 49.3677 23 49.7944 22.52L60.5544 10.24C60.661 10.1067 60.6877 9.98667 60.6344 9.88C60.581 9.74667 60.4744 9.65333 60.3144 9.6C60.181 9.54667 60.0077 9.53333 59.7944 9.56C59.6077 9.58667 59.4344 9.69333 59.2744 9.88C58.9544 10.2533 58.501 10.7467 57.9144 11.36C57.3277 11.9467 56.781 12.52 56.2744 13.08C55.661 13.1067 55.101 13.12 54.5944 13.12C54.1144 13.0933 53.6344 13.08 53.1544 13.08C52.6744 13.0533 52.1677 13.0133 51.6344 12.96C51.1277 12.9067 50.5544 12.8533 49.9144 12.8C48.7944 12.6933 47.901 12.1867 47.2344 11.28C46.5944 10.3733 46.2744 9.01333 46.2744 7.2C46.2744 5.38667 46.6877 4.02667 47.5144 3.12C48.3677 2.21333 49.3677 1.72 50.5144 1.64C52.2744 1.53333 53.9277 1.45333 55.4744 1.4C57.021 1.32 58.5544 1.28 60.0744 1.28C61.5944 1.28 63.1277 1.32 64.6744 1.4C66.2477 1.45333 67.9144 1.53333 69.6744 1.64C70.821 1.72 71.7944 2.21333 72.5944 3.12C73.421 4.02667 73.8344 5.38667 73.8344 7.2C73.8344 8 73.7144 8.76 73.4744 9.48C73.261 10.1733 72.9677 10.8267 72.5944 11.44C72.2477 12.0533 71.8477 12.6267 71.3944 13.16C70.9677 13.6933 70.5544 14.1733 70.1544 14.6L60.9144 25.08C60.7277 25.2667 60.661 25.44 60.7144 25.6C60.7677 25.7333 60.8744 25.8267 61.0344 25.88C61.221 25.9333 61.4344 25.9333 61.6744 25.88C61.9144 25.8267 62.1277 25.68 62.3144 25.44C62.421 25.28 62.6077 25.0533 62.8744 24.76C63.141 24.44 63.421 24.1067 63.7144 23.76C64.0344 23.4133 64.3277 23.0933 64.5944 22.8C64.8877 22.48 65.101 22.2533 65.2344 22.12ZM90.2856 35.92C87.459 35.92 85.1123 35.48 83.2456 34.6C81.4056 33.72 79.939 32.5067 78.8456 30.96C77.779 29.4133 77.0323 27.6133 76.6056 25.56C76.179 23.48 75.9656 21.24 75.9656 18.84C75.9656 16.76 75.979 14.6667 76.0056 12.56C76.059 10.4267 76.1256 8.36 76.2056 6.36C76.3123 4.84 76.8723 3.64 77.8856 2.76C78.899 1.85333 80.179 1.4 81.7256 1.4C83.2723 1.4 84.5523 1.85333 85.5656 2.76C86.6056 3.64 87.1656 4.84 87.2456 6.36C87.3523 8.36 87.419 10.4267 87.4456 12.56C87.499 14.6667 87.5256 16.76 87.5256 18.84C87.5256 19.4267 87.5523 19.9733 87.6056 20.48C87.6856 20.9867 87.819 21.44 88.0056 21.84C88.1923 22.2133 88.459 22.5067 88.8056 22.72C89.179 22.9333 89.6723 23.04 90.2856 23.04C90.8723 23.04 91.3523 22.9333 91.7256 22.72C92.099 22.5067 92.379 22.2133 92.5656 21.84C92.7523 21.44 92.8723 20.9867 92.9256 20.48C93.0056 19.9733 93.0456 19.4267 93.0456 18.84C93.0456 16.76 93.059 14.6667 93.0856 12.56C93.139 10.4267 93.219 8.36 93.3256 6.36C93.3523 5.61333 93.5123 4.93333 93.8056 4.32C94.099 3.70667 94.4856 3.18667 94.9656 2.76C95.4456 2.30667 96.0056 1.97333 96.6456 1.76C97.3123 1.52 98.0323 1.4 98.8056 1.4C99.579 1.4 100.299 1.52 100.966 1.76C101.632 1.97333 102.206 2.30667 102.686 2.76C103.192 3.18667 103.592 3.70667 103.886 4.32C104.179 4.93333 104.339 5.61333 104.366 6.36C104.472 8.36 104.539 10.4267 104.566 12.56C104.619 14.6667 104.646 16.76 104.646 18.84C104.646 21.24 104.419 23.48 103.966 25.56C103.539 27.6133 102.779 29.4133 101.686 30.96C100.619 32.5067 99.1523 33.72 97.2856 34.6C95.4456 35.48 93.1123 35.92 90.2856 35.92ZM119.004 24.28C118.951 25.2667 118.884 26.2533 118.804 27.24C118.724 28.2267 118.644 29.2133 118.564 30.2C118.484 30.9467 118.324 31.64 118.084 32.28C117.844 32.9467 117.498 33.52 117.044 34C116.618 34.48 116.084 34.8533 115.444 35.12C114.831 35.4133 114.111 35.56 113.284 35.56C112.431 35.56 111.684 35.4133 111.044 35.12C110.431 34.8533 109.898 34.48 109.444 34C109.018 33.52 108.684 32.9467 108.444 32.28C108.204 31.64 108.044 30.9467 107.964 30.2C107.564 26.3867 107.364 22.5067 107.364 18.56C107.391 14.6133 107.591 10.7333 107.964 6.92C108.071 5.96 108.298 5.14667 108.644 4.48C108.991 3.81333 109.431 3.26666 109.964 2.84C110.498 2.41333 111.098 2.09333 111.764 1.88C112.458 1.64 113.191 1.46667 113.964 1.36C114.898 1.25333 115.844 1.17333 116.804 1.12C117.791 1.04 118.751 0.999999 119.684 0.999999C121.551 0.973332 123.391 1.08 125.204 1.32C127.044 1.56 128.684 2.08 130.124 2.88C131.591 3.68 132.764 4.85333 133.644 6.4C134.551 7.94667 135.004 10.0133 135.004 12.6C135.004 14.4133 134.791 15.96 134.364 17.24C133.964 18.52 133.391 19.6 132.644 20.48C131.924 21.3333 131.058 22.0267 130.044 22.56C129.058 23.0667 127.964 23.4533 126.764 23.72C125.591 23.9867 124.338 24.16 123.004 24.24C121.698 24.2933 120.364 24.3067 119.004 24.28ZM119.004 13.44C120.658 14.2933 122.431 14.6267 124.324 14.44C124.564 14.4133 124.724 14.32 124.804 14.16C124.911 14 124.964 13.84 124.964 13.68C124.964 13.4933 124.911 13.3333 124.804 13.2C124.724 13.0667 124.604 13 124.444 13C123.458 13.0533 122.578 13 121.804 12.84C121.031 12.68 120.218 12.4133 119.364 12.04C119.204 11.96 119.058 11.9733 118.924 12.08C118.791 12.16 118.684 12.28 118.604 12.44C118.551 12.6 118.551 12.7867 118.604 13C118.658 13.1867 118.791 13.3333 119.004 13.44Z" fill="#262119"/>
</svg>
