<svg width="16" height="15" viewBox="0 0 16 15" fill="none" xmlns="http://www.w3.org/2000/svg">
<g opacity="0.4">
<path d="M7.81108 4.15909C8.05425 3.9352 8.44489 3.93349 8.69032 4.1529L8.70061 4.1623L11.7481 7.01218C11.988 7.23654 11.9913 7.59651 11.7582 7.82468L11.7481 7.83438L8.70061 10.6843C8.45593 10.9131 8.05767 10.9145 7.81108 10.6875C7.56792 10.4636 7.56303 10.1011 7.79757 9.87168L7.80762 9.86206L10.4155 7.42328L7.80762 4.9845C7.56634 4.75886 7.5645 4.39637 7.80095 4.16863L7.81108 4.15909Z" fill="#141E28"/>
<path d="M10.8782 6.83984C11.2256 6.83984 11.5072 7.10116 11.5072 7.4235C11.5072 7.74201 11.2322 8.00092 10.8906 8.00704L10.8782 8.00715H4.69845C4.35107 8.00715 4.06946 7.74584 4.06946 7.4235C4.06946 7.10499 4.3444 6.84607 4.68607 6.83995L4.69845 6.83984H10.8782Z" fill="#141E28"/>
<path fill-rule="evenodd" clip-rule="evenodd" d="M0 7.42337C0 3.32493 3.58321 0 8 0C12.4168 0 16 3.32493 16 7.42337C16 11.5218 12.4168 14.8467 8 14.8467C3.58321 14.8467 0 11.5218 0 7.42337ZM14.742 7.42337C14.742 3.96962 11.722 1.16731 8 1.16731C4.27797 1.16731 1.25799 3.96962 1.25799 7.42337C1.25799 10.8771 4.27797 13.6794 8 13.6794C11.722 13.6794 14.742 10.8771 14.742 7.42337Z" fill="#141E28"/>
</g>
</svg>
