<svg width="25" height="24" viewBox="0 0 25 24" fill="none" xmlns="http://www.w3.org/2000/svg">
<path fill-rule="evenodd" clip-rule="evenodd" d="M16.4457 10.3999C16.4457 11.1353 16.3008 11.8635 16.0194 12.5429C15.738 13.2223 15.3255 13.8396 14.8055 14.3597C14.2854 14.8797 13.6681 15.2922 12.9887 15.5736C12.3093 15.855 11.5811 15.9999 10.8457 15.9999C10.1103 15.9999 9.38205 15.855 8.70263 15.5736C8.0232 15.2922 7.40586 14.8797 6.88586 14.3597C6.36585 13.8396 5.95335 13.2223 5.67193 12.5429C5.3905 11.8635 5.24565 11.1353 5.24565 10.3999C5.24565 8.91464 5.83565 7.49026 6.88586 6.44005C7.93606 5.38985 9.36044 4.79985 10.8457 4.79985C12.3309 4.79985 13.7552 5.38985 14.8055 6.44005C15.8557 7.49026 16.4457 8.91464 16.4457 10.3999ZM15.3401 16.0255C13.9023 17.1741 12.0794 17.7286 10.2455 17.5751C8.41174 17.4217 6.7063 16.5719 5.47948 15.2002C4.25265 13.8286 3.59758 12.0393 3.64879 10.1998C3.7 8.36034 4.4536 6.61026 5.75483 5.30903C7.05606 4.0078 8.80614 3.25419 10.6456 3.20299C12.4851 3.15178 14.2744 3.80685 15.646 5.03368C17.0177 6.2605 17.8675 7.96594 18.0209 9.79975C18.1744 11.6336 17.6199 13.4565 16.4713 14.8943L21.0121 19.4335C21.0864 19.5078 21.1454 19.5961 21.1857 19.6933C21.2259 19.7905 21.2467 19.8947 21.2467 19.9999C21.2467 20.105 21.2259 20.2092 21.1857 20.3064C21.1454 20.4036 21.0864 20.4919 21.0121 20.5663C20.9377 20.6406 20.8494 20.6996 20.7522 20.7399C20.655 20.7801 20.5508 20.8009 20.4457 20.8009C20.3405 20.8009 20.2363 20.7801 20.1391 20.7399C20.0419 20.6996 19.9536 20.6406 19.8793 20.5663L15.3401 16.0255Z" fill="#262119"/>
</svg>
