<svg width="293" height="274" viewBox="0 0 293 274" fill="none" xmlns="http://www.w3.org/2000/svg">
<g filter="url(#filter0_d_74_230)">
<rect width="263" height="244" transform="translate(15 11)" fill="url(#paint0_linear_74_230)" fill-opacity="0.8"/>
<path d="M39.492 238.464H49.548V239.772H39.492V238.464ZM43.668 235.992H45.252V238.812H43.668V235.992ZM43.608 230.568H45V231.372C45 233.736 43.284 235.824 40.38 236.352L39.72 235.02C42.252 234.612 43.608 232.908 43.608 231.372V230.568ZM43.92 230.568H45.312V231.372C45.312 232.944 46.668 234.612 49.212 235.02L48.552 236.352C45.636 235.812 43.92 233.772 43.92 231.372V230.568ZM52.9551 230.556H54.2631V231.54C54.2631 233.748 53.3031 235.692 51.1911 236.424L50.3391 235.164C52.1991 234.54 52.9551 233.052 52.9551 231.54V230.556ZM53.2791 230.556H54.5751V231.696C54.5751 233.028 55.3191 234.324 57.0591 234.864L56.2311 236.1C54.2271 235.428 53.2791 233.7 53.2791 231.696V230.556ZM57.6711 229.956H59.2671V236.52H57.6711V229.956ZM58.8231 232.524H60.7431V233.844H58.8231V232.524ZM55.6431 236.772C57.9471 236.772 59.3991 237.576 59.3991 238.92C59.3991 240.276 57.9471 241.068 55.6431 241.068C53.3271 241.068 51.8751 240.276 51.8751 238.92C51.8751 237.576 53.3271 236.772 55.6431 236.772ZM55.6431 238.008C54.2271 238.008 53.4591 238.308 53.4591 238.92C53.4591 239.544 54.2271 239.832 55.6431 239.832C57.0591 239.832 57.8151 239.544 57.8151 238.92C57.8151 238.308 57.0591 238.008 55.6431 238.008ZM66.5261 236.868C68.9261 236.868 70.4621 237.66 70.4621 238.98C70.4621 240.276 68.9261 241.068 66.5261 241.068C64.1261 241.068 62.5901 240.276 62.5901 238.98C62.5901 237.66 64.1261 236.868 66.5261 236.868ZM66.5261 238.068C65.0261 238.068 64.1741 238.38 64.1741 238.98C64.1741 239.568 65.0261 239.868 66.5261 239.868C68.0261 239.868 68.8781 239.568 68.8781 238.98C68.8781 238.38 68.0261 238.068 66.5261 238.068ZM62.7101 230.448H69.7421V231.708H62.7101V230.448ZM61.5821 234.912H71.5901V236.184H61.5821V234.912ZM65.2901 232.98H66.8741V235.236H65.2901V232.98ZM68.8181 230.448H70.4021V231.36C70.4021 232.236 70.4021 233.184 70.1021 234.336L68.5181 234.168C68.8181 233.028 68.8181 232.224 68.8181 231.36V230.448ZM80.2292 229.968H81.8372V237.948H80.2292V229.968ZM74.4332 239.604H82.1132V240.876H74.4332V239.604ZM74.4332 237.144H76.0292V240.12H74.4332V237.144ZM75.7892 230.664C77.4932 230.664 78.8012 231.84 78.8012 233.484C78.8012 235.116 77.4932 236.304 75.7892 236.304C74.0852 236.304 72.7652 235.116 72.7652 233.484C72.7652 231.84 74.0852 230.664 75.7892 230.664ZM75.7892 232.044C74.9612 232.044 74.3252 232.572 74.3252 233.484C74.3252 234.384 74.9612 234.912 75.7892 234.912C76.6052 234.912 77.2412 234.384 77.2412 233.484C77.2412 232.572 76.6052 232.044 75.7892 232.044ZM89.031 231.708H90.303V232.956C90.303 235.524 89.259 238.032 87.171 238.98L86.271 237.72C88.131 236.892 89.031 234.84 89.031 232.956V231.708ZM89.391 231.708H90.651V232.956C90.651 234.756 91.539 236.676 93.399 237.444L92.535 238.704C90.423 237.792 89.391 235.428 89.391 232.956V231.708ZM86.715 231.024H92.943V232.332H86.715V231.024ZM93.975 229.956H95.583V241.068H93.975V229.956ZM100.286 235.656H101.882V238.092H100.286V235.656ZM105.158 229.956H106.754V238.368H105.158V229.956ZM98.7501 239.604H106.994V240.876H98.7501V239.604ZM98.7501 237.576H100.346V239.94H98.7501V237.576ZM97.5501 236.136L97.3581 234.864C99.3861 234.864 102.098 234.84 104.426 234.54L104.522 235.68C102.158 236.076 99.5541 236.136 97.5501 236.136ZM103.058 236.412H105.506V237.504H103.058V236.412ZM100.934 230.34C102.554 230.34 103.694 231.144 103.694 232.32C103.694 233.508 102.554 234.3 100.934 234.3C99.3021 234.3 98.1621 233.508 98.1621 232.32C98.1621 231.144 99.3021 230.34 100.934 230.34ZM100.934 231.504C100.19 231.504 99.6741 231.78 99.6741 232.32C99.6741 232.86 100.19 233.136 100.934 233.136C101.666 233.136 102.182 232.86 102.182 232.32C102.182 231.78 101.666 231.504 100.934 231.504ZM116.461 229.956H117.973V241.068H116.461V229.956ZM112.801 233.748H114.637V235.044H112.801V233.748ZM114.217 230.136H115.705V240.564H114.217V230.136ZM110.401 231.768H111.601V232.908C111.601 235.404 110.917 237.888 109.153 238.992L108.205 237.816C109.837 236.796 110.401 234.804 110.401 232.908V231.768ZM110.761 231.768H111.949V232.908C111.949 234.756 112.501 236.628 114.109 237.564L113.173 238.728C111.409 237.684 110.761 235.356 110.761 232.908V231.768ZM108.625 231.072H113.581V232.356H108.625V231.072ZM120.648 234.912H128.46V236.184H120.648V234.912ZM119.484 238.512H129.54V239.82H119.484V238.512ZM123.696 235.488H125.292V238.932H123.696V235.488ZM120.648 230.712H128.376V231.996H122.244V235.464H120.648V230.712ZM133.254 240V238.932L137.394 232.596H133.65V231.12H139.578V232.188L135.438 238.512H139.626V240H133.254ZM141.201 240V231.12H142.977V240H141.201ZM145.162 240V231.12H148.078C150.034 231.12 151.546 231.804 151.546 233.916C151.546 235.944 150.034 236.844 148.126 236.844H146.938V240H145.162ZM146.938 235.44H148.006C149.23 235.44 149.818 234.924 149.818 233.916C149.818 232.872 149.17 232.536 147.946 232.536H146.938V235.44ZM152.237 240.168C151.601 240.168 151.145 239.676 151.145 239.016C151.145 238.356 151.601 237.876 152.237 237.876C152.861 237.876 153.341 238.356 153.341 239.016C153.341 239.676 152.861 240.168 152.237 240.168Z" fill="black"/>
<path d="M147.078 178.278C147.078 178.61 146.987 178.888 146.867 179.069C146.744 179.253 146.629 179.289 146.571 179.289C146.512 179.289 146.397 179.253 146.274 179.069C146.154 178.888 146.063 178.61 146.063 178.278C146.063 177.946 146.154 177.668 146.274 177.487C146.397 177.303 146.512 177.268 146.571 177.268C146.629 177.268 146.744 177.303 146.867 177.487C146.987 177.668 147.078 177.946 147.078 178.278Z" fill="#CFCFCF" stroke="black"/>
<path d="M107.296 78.0771V84.1194" stroke="black" stroke-linecap="round" stroke-linejoin="round"/>
<path d="M104.274 81.0986H110.317" stroke="black" stroke-linecap="round" stroke-linejoin="round"/>
<path d="M174.906 115.989L174.909 115.989C178.274 115.965 181.628 115.892 184.935 115.82C185.521 115.808 186.106 115.795 186.688 115.783C189.324 115.727 192.169 115.401 195.076 115.053C195.259 115.031 195.443 115.009 195.627 114.987C198.366 114.659 201.157 114.324 203.914 114.18C209.803 113.871 215.437 114.437 219.934 117.7C223.425 120.485 225.773 124.438 226.536 128.818L226.538 128.827L226.54 128.836C228.142 136.384 228.048 145.767 225.912 154.488C223.775 163.214 219.611 171.215 213.131 176.073C206.044 181.372 197.223 183.592 188.071 184.166C178.92 184.739 169.48 183.664 161.189 182.409L161.188 182.408C142.285 179.57 123.443 174.622 106.308 166.12L106.307 166.12C98.8838 162.454 90.8228 157.796 83.9065 152.033C76.9886 146.269 71.2426 139.422 68.4058 131.383L68.4055 131.382C66.5056 126.028 65.2047 119.539 65.5579 113.374C65.9109 107.214 67.9107 101.425 72.5591 97.3789C78.1593 92.7857 85.0954 90.0964 92.3489 89.7066L92.3489 89.7066L92.3567 89.7061C99.6827 89.1979 104.821 92.5638 110.613 96.9155C119.496 103.628 129.485 109.45 140.383 112.454C151.478 115.523 163.321 115.989 174.906 115.989Z" fill="#F2F2F2" stroke="black"/>
<path d="M157.148 68.5106C157.148 69.0687 156.696 69.5211 156.138 69.5211C155.579 69.5211 155.127 69.0687 155.127 68.5106C155.127 67.9524 155.579 67.5 156.138 67.5C156.696 67.5 157.148 67.9524 157.148 68.5106Z" fill="#CFCFCF" stroke="black"/>
<path d="M86.1479 174.754V180.796" stroke="black" stroke-linecap="round" stroke-linejoin="round"/>
<path d="M83.127 177.774H89.1692" stroke="black" stroke-linecap="round" stroke-linejoin="round"/>
<path d="M196.757 206.85C196.912 206.895 197.041 206.939 197.147 206.979C197.041 207.02 196.912 207.063 196.757 207.108C196.114 207.294 195.144 207.48 193.863 207.66C191.31 208.019 187.602 208.343 183.005 208.616C173.814 209.162 161.111 209.5 147.074 209.5C133.037 209.5 120.334 209.162 111.143 208.616C106.546 208.343 102.838 208.019 100.284 207.66C99.0041 207.48 98.0333 207.294 97.3909 207.108C97.2359 207.063 97.1067 207.02 97.0008 206.979C97.1067 206.939 97.2359 206.895 97.3909 206.85C98.0333 206.664 99.0041 206.478 100.284 206.298C102.838 205.94 106.546 205.615 111.143 205.342C120.334 204.796 133.037 204.458 147.074 204.458C161.111 204.458 173.814 204.796 183.005 205.342C187.602 205.615 191.31 205.94 193.863 206.298C195.144 206.478 196.114 206.664 196.757 206.85Z" fill="#F2F2F2" stroke="black"/>
<path d="M187.763 172.239H187.759H100.259C99.7453 172.239 99.238 172.127 98.7722 171.913C98.3063 171.698 97.893 171.386 97.5609 170.997C97.2287 170.608 96.9856 170.153 96.848 169.662C96.7106 169.171 96.6819 168.657 96.7639 168.154C96.764 168.154 96.764 168.153 96.7641 168.153L107.955 100.655L107.955 100.653C108.087 99.8319 108.51 99.0841 109.148 98.5445C109.786 98.0049 110.597 97.7091 111.435 97.7109H111.436H198.936C199.449 97.711 199.955 97.8222 200.421 98.0367C200.886 98.2511 201.298 98.5637 201.629 98.9525C201.96 99.3412 202.202 99.7969 202.338 100.288C202.474 100.778 202.501 101.293 202.417 101.795L202.417 101.796L191.281 169.295L191.281 169.295C191.145 170.122 190.716 170.874 190.071 171.414C189.426 171.954 188.607 172.247 187.763 172.239Z" fill="#D2D2D2" stroke="black"/>
<path d="M188.918 95.1027L136.899 71.8773C135.366 71.1927 133.568 71.8807 132.883 73.414L116.397 110.339C115.712 111.873 116.4 113.671 117.934 114.355L169.952 137.581C171.485 138.265 173.283 137.577 173.968 136.044L190.455 99.1186C191.139 97.5853 190.451 95.7873 188.918 95.1027Z" fill="#522714" stroke="black" stroke-linecap="round" stroke-linejoin="round"/>
<path d="M144.556 102.386C145.894 100.52 147.839 99.1719 150.063 98.5689C152.286 97.966 154.651 98.1456 156.756 99.0775C158.862 100.009 160.578 101.636 161.615 103.682C162.652 105.728 162.945 108.067 162.445 110.303" stroke="white" stroke-width="0.68" stroke-linecap="round" stroke-linejoin="round"/>
<path d="M170.239 98.7215C170.239 99.2796 169.787 99.7321 169.229 99.7321C168.671 99.7321 168.218 99.2796 168.218 98.7215C168.218 98.1634 168.671 97.7109 169.229 97.7109C169.787 97.7109 170.239 98.1634 170.239 98.7215Z" fill="#BABABA" stroke="white"/>
<path d="M150.099 89.658C150.099 90.2161 149.646 90.6686 149.088 90.6686C148.53 90.6686 148.078 90.2161 148.078 89.658C148.078 89.0999 148.53 88.6475 149.088 88.6475C149.646 88.6475 150.099 89.0999 150.099 89.658Z" fill="#BABABA" stroke="white"/>
<path d="M187.829 172.739H99.2708C98.1932 172.735 97.161 172.306 96.4004 171.545C95.6397 170.784 95.2126 169.753 95.2126 168.678V106.404C95.1996 105.864 95.2949 105.327 95.4929 104.823C95.6909 104.32 95.9875 103.862 96.3655 103.475C96.7434 103.087 97.1951 102.779 97.694 102.568C98.1929 102.357 98.7289 102.248 99.2708 102.246H131.528C132.277 102.249 133.01 102.457 133.647 102.848C134.285 103.24 134.802 103.799 135.142 104.464L139.742 113.445C140.08 114.111 140.597 114.671 141.235 115.062C141.873 115.454 142.607 115.662 143.355 115.663H187.829C188.906 115.663 189.938 116.089 190.699 116.848C191.46 117.607 191.887 118.637 191.887 119.71V168.678C191.887 169.753 191.46 170.784 190.7 171.545C189.939 172.306 188.907 172.735 187.829 172.739Z" fill="white" stroke="black" stroke-linecap="round" stroke-linejoin="round"/>
<path d="M174.278 118.359C169.198 118.357 164.232 119.86 160.007 122.68C155.782 125.501 152.489 129.51 150.543 134.202C148.597 138.894 148.087 144.058 149.076 149.04C150.066 154.023 152.51 158.6 156.101 162.192C159.692 165.785 164.267 168.232 169.249 169.224C174.231 170.216 179.395 169.708 184.088 167.765C188.781 165.822 192.793 162.53 195.615 158.307C198.437 154.084 199.944 149.118 199.944 144.039C199.944 137.231 197.24 130.701 192.427 125.886C187.614 121.07 181.086 118.363 174.278 118.359Z" fill="white" stroke="black" stroke-linecap="round" stroke-linejoin="round"/>
<path d="M191.887 162.669L198.937 169.718" stroke="black" stroke-linecap="round" stroke-linejoin="round"/>
<path d="M196.503 168.583L198.633 166.355C199.397 165.556 200.664 165.528 201.463 166.292L219.944 183.959C220.743 184.723 220.772 185.99 220.008 186.789L217.878 189.017C217.114 189.816 215.847 189.844 215.048 189.081L196.567 171.413C195.768 170.649 195.739 169.382 196.503 168.583Z" fill="#D2D2D2" stroke="black"/>
<path d="M212.028 68.0068V74.0491" stroke="black" stroke-linecap="round" stroke-linejoin="round"/>
<path d="M209.007 71.0283H215.049" stroke="black" stroke-linecap="round" stroke-linejoin="round"/>
</g>
<defs>
<filter id="filter0_d_74_230" x="0" y="0" width="293" height="274" filterUnits="userSpaceOnUse" color-interpolation-filters="sRGB">
<feFlood flood-opacity="0" result="BackgroundImageFix"/>
<feColorMatrix in="SourceAlpha" type="matrix" values="0 0 0 0 0 0 0 0 0 0 0 0 0 0 0 0 0 0 127 0" result="hardAlpha"/>
<feOffset dy="4"/>
<feGaussianBlur stdDeviation="7.5"/>
<feComposite in2="hardAlpha" operator="out"/>
<feColorMatrix type="matrix" values="0 0 0 0 0 0 0 0 0 0 0 0 0 0 0 0 0 0 0.15 0"/>
<feBlend mode="normal" in2="BackgroundImageFix" result="effect1_dropShadow_74_230"/>
<feBlend mode="normal" in="SourceGraphic" in2="effect1_dropShadow_74_230" result="shape"/>
</filter>
<linearGradient id="paint0_linear_74_230" x1="293.5" y1="297.5" x2="35" y2="68" gradientUnits="userSpaceOnUse">
<stop stop-color="white"/>
<stop offset="1" stop-color="#522714" stop-opacity="0.3"/>
</linearGradient>
</defs>
</svg>
