<svg width="7" height="9" viewBox="0 0 7 9" fill="none" xmlns="http://www.w3.org/2000/svg">
<path fill-rule="evenodd" clip-rule="evenodd" d="M1.56949 0.700195H5.04383C5.68344 0.700195 6.20195 1.21183 6.20195 1.84297V8.41394C6.20195 8.66045 5.90679 8.79125 5.72007 8.62747L3.30666 6.51061L0.893258 8.62747C0.708408 8.78961 0.417269 8.66304 0.411465 8.4213L0.411377 8.41394V1.84297C0.411377 1.21183 0.929882 0.700195 1.56949 0.700195ZM5.05334 1.27168L5.04376 1.27161H1.56942C1.24961 1.27161 0.990359 1.52743 0.990359 1.843V7.77778L3.11424 5.91488C3.22225 5.82014 3.38417 5.81868 3.49384 5.91051L3.49894 5.91488L5.62282 7.77778V1.843C5.62282 1.53058 5.36872 1.27673 5.05334 1.27168Z" fill="white"/>
</svg>
