<svg width="9" height="9" viewBox="0 0 9 9" fill="none" xmlns="http://www.w3.org/2000/svg">
<path fill-rule="evenodd" clip-rule="evenodd" d="M0.445821 4.61861C0.438982 2.45372 2.20918 0.700195 4.39386 0.700195C6.27416 0.700195 7.88613 2.01336 8.26373 3.81647C8.31972 4.08058 8.34803 4.34994 8.34818 4.62026C8.34818 6.80267 6.62625 8.56584 4.45669 8.56584C4.14113 8.56584 3.69351 8.49342 3.3846 8.40589L3.36316 8.39976L3.33149 8.39051L3.29997 8.38109L3.26927 8.37171L3.23848 8.36211L3.22308 8.35725L3.19232 8.34741L3.1617 8.33744L3.13128 8.3274L3.10117 8.3173L3.07145 8.30719L3.0422 8.29711L2.99941 8.28211L2.97174 8.27224L2.94484 8.26253L2.90614 8.24832L2.88156 8.23914L2.85807 8.23024L2.82505 8.21749C2.79832 8.2071 2.76993 8.20175 2.74052 8.20172C2.70989 8.20161 2.67955 8.20779 2.65133 8.21988L2.64357 8.22321L1.45536 8.65726L1.44302 8.66223C1.39873 8.6794 1.35254 8.6911 1.30545 8.69706L1.29357 8.69844L1.27699 8.70019L1.26032 8.70014C1.13245 8.69975 1.01005 8.6476 0.920381 8.55531C0.830713 8.46302 0.781233 8.33826 0.782963 8.20882L0.783092 8.1992L0.783801 8.1896C0.786896 8.14773 0.794358 8.10631 0.806062 8.06603L1.13787 6.85078L1.13618 6.84633C1.13054 6.83184 1.12232 6.81453 1.11226 6.79622L1.11031 6.79274L1.10528 6.7844C1.10113 6.77773 1.0968 6.77118 1.0923 6.76474L1.08543 6.75519L1.07985 6.74765L1.06248 6.72085C0.660132 6.09518 0.445819 5.36453 0.445821 4.61861ZM7.65597 3.9476C7.33926 2.43524 5.98143 1.3291 4.39375 1.3291C2.54956 1.3291 1.06129 2.80335 1.06702 4.61752C1.06702 5.24889 1.25001 5.86638 1.59331 6.39345L1.58933 6.38731L1.5938 6.39345C1.60854 6.41413 1.62255 6.43534 1.63579 6.45704L1.64558 6.4734L1.64811 6.4778C1.68372 6.54085 1.71321 6.60547 1.73367 6.67151C1.76569 6.77488 1.77506 6.8766 1.74681 6.981L1.4735 7.98184L2.41817 7.63672L2.42165 7.63528C2.51932 7.59528 2.62348 7.57406 2.72819 7.57271L2.74185 7.57265C2.84642 7.57276 2.95008 7.59228 3.04823 7.63044L3.05802 7.63425L3.07857 7.64215L3.11162 7.65461L3.135 7.66326L3.17185 7.67666L3.19746 7.68582L3.23718 7.6998L3.26441 7.70922L3.29211 7.71867L3.33435 7.73282L3.36282 7.74218L3.39143 7.75143L3.40575 7.75601L3.43439 7.76502L3.46292 7.77384L3.49628 7.78391L3.53811 7.79615L3.55194 7.8001C3.80993 7.8732 4.20287 7.93677 4.45658 7.93677C6.2814 7.93677 7.72675 6.4568 7.72675 4.62036C7.72662 4.39447 7.70295 4.16922 7.65597 3.9476Z" fill="white"/>
<ellipse cx="2.69321" cy="4.90004" rx="0.554292" ry="0.595351" fill="white"/>
<ellipse cx="4.35629" cy="4.90004" rx="0.554292" ry="0.595351" fill="white"/>
<ellipse cx="6.01914" cy="4.90004" rx="0.554292" ry="0.595351" fill="white"/>
</svg>
