<svg width="25" height="24" viewBox="0 0 25 24" fill="none" xmlns="http://www.w3.org/2000/svg">
<g id="solar:document-bold">
<path id="Vector" fill-rule="evenodd" clip-rule="evenodd" d="M4.6178 3.172C3.4458 4.343 3.4458 6.229 3.4458 10V14C3.4458 17.771 3.4458 19.657 4.6178 20.828C5.7898 21.999 7.6748 22 11.4458 22H13.4458C17.2168 22 19.1028 22 20.2738 20.828C21.4448 19.656 21.4458 17.771 21.4458 14V10C21.4458 6.229 21.4458 4.343 20.2738 3.172C19.1018 2.001 17.2168 2 13.4458 2H11.4458C7.6748 2 5.7888 2 4.6178 3.172ZM8.4458 9.25C8.24689 9.25 8.05612 9.32902 7.91547 9.46967C7.77482 9.61032 7.6958 9.80109 7.6958 10C7.6958 10.1989 7.77482 10.3897 7.91547 10.5303C8.05612 10.671 8.24689 10.75 8.4458 10.75H16.4458C16.6447 10.75 16.8355 10.671 16.9761 10.5303C17.1168 10.3897 17.1958 10.1989 17.1958 10C17.1958 9.80109 17.1168 9.61032 16.9761 9.46967C16.8355 9.32902 16.6447 9.25 16.4458 9.25H8.4458ZM8.4458 13.25C8.24689 13.25 8.05612 13.329 7.91547 13.4697C7.77482 13.6103 7.6958 13.8011 7.6958 14C7.6958 14.1989 7.77482 14.3897 7.91547 14.5303C8.05612 14.671 8.24689 14.75 8.4458 14.75H13.4458C13.6447 14.75 13.8355 14.671 13.9761 14.5303C14.1168 14.3897 14.1958 14.1989 14.1958 14C14.1958 13.8011 14.1168 13.6103 13.9761 13.4697C13.8355 13.329 13.6447 13.25 13.4458 13.25H8.4458Z" fill="#505050"/>
</g>
</svg>
