<svg width="17" height="18" viewBox="0 0 17 18" fill="none" xmlns="http://www.w3.org/2000/svg">
<g id="Group 1707481906">
<path id="Vector" d="M3.61211 5.50969C3.51518 6.42168 3.44717 8.03565 4.05761 8.72264C4.05761 8.72264 3.77024 6.94967 6.34635 4.7252C7.3836 3.82972 7.62335 2.61174 7.26117 1.69825C7.05542 1.18076 6.67963 0.753266 6.35315 0.454771C6.16271 0.279274 6.30894 -0.010222 6.58611 0.000277881C8.2627 0.0662769 10.9799 0.47727 12.1345 3.03323C12.6412 4.15521 12.6786 5.3147 12.4372 6.49368C12.2842 7.24667 11.74 8.92064 12.9813 9.12614C13.8672 9.27313 14.2957 8.65214 14.4879 8.20515C14.5678 8.01915 14.845 7.97265 14.9946 8.12115C16.4909 9.62263 16.6185 11.3911 16.309 12.9136C15.7105 15.8565 12.3318 17.9985 8.97517 17.9985C4.78198 17.9985 1.44409 15.882 0.578588 12.0511C0.230005 10.5046 0.406848 7.44466 3.11049 5.2847C3.31113 5.1227 3.63931 5.2667 3.61211 5.50969Z" fill="url(#paint0_radial_213_3735)"/>
<path id="Vector_2" d="M10.5073 11.013C8.96159 9.25807 9.65365 7.2556 10.0328 6.45761C10.0839 6.35261 9.94782 6.25362 9.84069 6.31811C9.17584 6.71711 7.81382 7.65609 7.17957 8.97757C6.32086 10.764 6.38208 11.6385 6.8905 12.7065C7.19657 13.35 6.84119 13.4865 6.66264 13.5105C6.4892 13.5345 6.32936 13.4325 6.20183 13.326C5.83502 13.0152 5.57359 12.6205 5.44686 12.186C5.41965 12.093 5.28192 12.0675 5.219 12.144C4.74289 12.7245 4.49633 13.656 4.48443 14.3145C4.44702 16.35 6.35317 17.9999 8.65891 17.9999C11.5649 17.9999 13.6819 15.165 12.0121 12.795C11.5275 12.105 11.0718 11.6535 10.5073 11.013Z" fill="url(#paint1_radial_213_3735)"/>
</g>
<defs>
<radialGradient id="paint0_radial_213_3735" cx="0" cy="0" r="1" gradientUnits="userSpaceOnUse" gradientTransform="translate(8.14466 18.0451) rotate(-179.781) scale(12.0027 17.3728)">
<stop offset="0.314" stop-color="#FF9800"/>
<stop offset="0.662" stop-color="#FF6D00"/>
<stop offset="0.972" stop-color="#F44336"/>
</radialGradient>
<radialGradient id="paint1_radial_213_3735" cx="0" cy="0" r="1" gradientUnits="userSpaceOnUse" gradientTransform="translate(8.81874 7.50885) rotate(90.656) scale(11.0784 9.45112)">
<stop offset="0.214" stop-color="#FFF176"/>
<stop offset="0.328" stop-color="#FFF27D"/>
<stop offset="0.487" stop-color="#FFF48F"/>
<stop offset="0.672" stop-color="#FFF7AD"/>
<stop offset="0.793" stop-color="#FFF9C4"/>
<stop offset="0.822" stop-color="#FFF8BD" stop-opacity="0.804"/>
<stop offset="0.863" stop-color="#FFF6AB" stop-opacity="0.529"/>
<stop offset="0.91" stop-color="#FFF38D" stop-opacity="0.209"/>
<stop offset="0.941" stop-color="#FFF176" stop-opacity="0"/>
</radialGradient>
</defs>
</svg>
