<svg width="25" height="24" viewBox="0 0 25 24" fill="none" xmlns="http://www.w3.org/2000/svg">
<g id="majesticons:logout">
<path id="Vector" fill-rule="evenodd" clip-rule="evenodd" d="M6.4458 2C5.65015 2 4.88709 2.31607 4.32448 2.87868C3.76187 3.44129 3.4458 4.20435 3.4458 5V19C3.4458 19.7956 3.76187 20.5587 4.32448 21.1213C4.88709 21.6839 5.65015 22 6.4458 22H12.4458C13.2415 22 14.0045 21.6839 14.5671 21.1213C15.1297 20.5587 15.4458 19.7956 15.4458 19V5C15.4458 4.20435 15.1297 3.44129 14.5671 2.87868C14.0045 2.31607 13.2415 2 12.4458 2H6.4458ZM16.7388 7.293C16.9263 7.10553 17.1806 7.00021 17.4458 7.00021C17.711 7.00021 17.9653 7.10553 18.1528 7.293L22.1528 11.293C22.3403 11.4805 22.4456 11.7348 22.4456 12C22.4456 12.2652 22.3403 12.5195 22.1528 12.707L18.1528 16.707C17.9642 16.8892 17.7116 16.99 17.4494 16.9877C17.1872 16.9854 16.9364 16.8802 16.751 16.6948C16.5656 16.5094 16.4604 16.2586 16.4581 15.9964C16.4558 15.7342 16.5566 15.4816 16.7388 15.293L19.0318 13H10.4458C10.1806 13 9.92623 12.8946 9.73869 12.7071C9.55116 12.5196 9.4458 12.2652 9.4458 12C9.4458 11.7348 9.55116 11.4804 9.73869 11.2929C9.92623 11.1054 10.1806 11 10.4458 11H19.0318L16.7388 8.707C16.5513 8.51947 16.446 8.26516 16.446 8C16.446 7.73484 16.5513 7.48053 16.7388 7.293Z" fill="#505050"/>
</g>
</svg>
