<svg width="17" height="17" viewBox="0 0 17 17" fill="none" xmlns="http://www.w3.org/2000/svg">
<path id="Vector" opacity="0.9" d="M13.0498 8.07895L14.0578 7.01789C14.4098 6.64737 14.8578 6.44526 15.3458 6.39474V5.55263L10.5458 0.5H2.5458C1.6578 0.5 0.945801 1.24947 0.945801 2.18421V13.9737C0.945801 14.4204 1.11437 14.8488 1.41443 15.1646C1.71449 15.4805 2.12145 15.6579 2.5458 15.6579H7.3458V14.0832L7.4498 13.9737H2.5458V2.18421H8.1458V8.07895H13.0498ZM9.7458 1.76316L14.1458 6.39474H9.7458V1.76316ZM13.8498 9.62L15.4818 11.3379L10.5778 16.5H8.9458V14.7821L13.8498 9.62ZM16.8258 9.92316L16.0418 10.7484L14.4098 9.03053L15.1938 8.20526C15.3458 8.03684 15.6098 8.03684 15.7698 8.20526L16.8258 9.31684C16.9858 9.48526 16.9858 9.76316 16.8258 9.92316Z" fill="white"/>
</svg>
