<svg width="9" height="9" viewBox="0 0 9 9" fill="none" xmlns="http://www.w3.org/2000/svg">
<path fill-rule="evenodd" clip-rule="evenodd" d="M4.33186 2.29681L4.34894 2.29585V0.473978C4.34894 0.145715 4.67302 -0.0225909 4.86867 0.204067L8.17133 4.03019C8.29821 4.17718 8.29821 4.42302 8.17133 4.57001L4.86867 8.39613C4.67302 8.62279 4.34894 8.45448 4.34894 8.12622V6.31853L4.33203 6.31916C4.22327 6.32343 4.11825 6.32994 4.01675 6.3387L3.97016 6.3429L3.92406 6.34742C3.81707 6.35834 3.71409 6.37188 3.61484 6.38806L3.57254 6.39516C3.10263 6.4762 2.71725 6.61779 2.3858 6.82247L2.36898 6.83294C2.07181 7.0194 1.81205 7.25616 1.54123 7.58871L1.51456 7.62173L1.4878 7.65538L1.46095 7.68966L1.434 7.72459L1.40694 7.76018L1.37975 7.79643L1.35243 7.83336L1.33872 7.85208L1.31118 7.89004C1.27896 7.93473 1.24642 7.98086 1.21348 8.02847L1.18515 8.06966L1.15662 8.11159L1.12787 8.15427L1.09889 8.19771L1.08431 8.21972L1.05498 8.26432L1.04022 8.28691L1.01051 8.3327L0.995552 8.35589C0.815556 8.6356 0.445801 8.48112 0.445801 8.12622C0.445801 6.51564 0.695575 5.17289 1.26609 4.16387C1.90798 3.02862 2.92419 2.3818 4.33186 2.29681ZM7.51371 4.30003L4.96378 1.34595V2.66028C4.96378 2.86636 4.82613 3.03342 4.65633 3.03342C3.27421 3.03342 2.34356 3.57704 1.77304 4.58607C1.41137 5.22572 1.19486 6.05043 1.10673 7.03308L1.10405 7.06347L1.12232 7.04113C1.42476 6.67305 1.72344 6.40061 2.06918 6.18093L2.08654 6.16997C2.74276 5.75822 3.54985 5.56667 4.65633 5.56667C4.82613 5.56667 4.96378 5.73373 4.96378 5.93981V7.25412L7.51371 4.30003Z" fill="white"/>
</svg>
