<svg width="16" height="16" viewBox="0 0 16 16" fill="none" xmlns="http://www.w3.org/2000/svg">
<g id="arrow-forward-circle-outline" opacity="0.4">
<path id="Path" d="M7.81108 4.48231C8.05425 4.24102 8.44489 4.23918 8.69032 4.47563L8.70061 4.48577L11.7481 7.55702C11.988 7.7988 11.9913 8.18673 11.7582 8.43263L11.7481 8.44308L8.70061 11.5143C8.45593 11.7609 8.05767 11.7625 7.81108 11.5178C7.56792 11.2765 7.56303 10.8859 7.79757 10.6386L7.80762 10.6283L10.4155 8.00005L7.80762 5.37183C7.56634 5.12866 7.5645 4.73802 7.80095 4.49259L7.81108 4.48231Z" fill="#141E28"/>
<path id="Path_2" d="M10.8782 7.37109C11.2256 7.37109 11.5072 7.6527 11.5072 8.00009C11.5072 8.34333 11.2322 8.62236 10.8906 8.62896L10.8782 8.62908H4.69845C4.35107 8.62908 4.06946 8.34747 4.06946 8.00009C4.06946 7.65684 4.3444 7.37781 4.68607 7.37121L4.69845 7.37109H10.8782Z" fill="#141E28"/>
<path id="Path_3" fill-rule="evenodd" clip-rule="evenodd" d="M0 8C0 3.58321 3.58321 0 8 0C12.4168 0 16 3.58321 16 8C16 12.4168 12.4168 16 8 16C3.58321 16 0 12.4168 0 8ZM14.742 8C14.742 4.27797 11.722 1.25799 8 1.25799C4.27797 1.25799 1.25799 4.27797 1.25799 8C1.25799 11.722 4.27797 14.742 8 14.742C11.722 14.742 14.742 11.722 14.742 8Z" fill="#141E28"/>
</g>
</svg>
